<svg version="1.1" viewBox="0.0 0.0 960.0 960.0" fill="none" stroke="none" stroke-linecap="square" stroke-miterlimit="10" xmlns:xlink="http://www.w3.org/1999/xlink" xmlns="http://www.w3.org/2000/svg"><clipPath id="p.0"><path d="m0 0l960.0 0l0 960.0l-960.0 0l0 -960.0z" clip-rule="nonzero"/></clipPath><g clip-path="url(#p.0)"><path fill="#000000" fill-opacity="0.0" d="m0 0l960.0 0l0 960.0l-960.0 0z" fill-rule="evenodd"/><path fill="#ffffff" d="m-13.070867 -16.755905l973.07086 0l0 966.77167l-973.07086 0z" fill-rule="evenodd"/><path stroke="#000000" stroke-width="1.0" stroke-linejoin="round" stroke-linecap="butt" d="m-13.070867 -16.755905l973.07086 0l0 966.77167l-973.07086 0z" fill-rule="evenodd"/><path fill="#000000" fill-opacity="0.0" d="m11.110236 10.7979l936.53546 0l0 939.2126l-936.53546 0z" fill-rule="evenodd"/><path stroke="#dfdfdf" stroke-width="24.0" stroke-linejoin="round" stroke-linecap="butt" d="m11.110236 10.7979l936.53546 0l0 939.2126l-936.53546 0z" fill-rule="evenodd"/><path fill="#f2f2f2" d="m-13.070867 -16.755905l456.8504 0l0 469.07086l-456.8504 0z" fill-rule="evenodd"/><path stroke="#000000" stroke-width="1.0" stroke-linejoin="round" stroke-linecap="butt" d="m-13.070867 -16.755905l456.8504 0l0 469.07086l-456.8504 0z" fill-rule="evenodd"/><path fill="#000000" fill-opacity="0.0" d="m480.0 0l0.1574707 960.0" fill-rule="evenodd"/><path stroke="#dfdfdf" stroke-width="24.0" stroke-linejoin="round" stroke-linecap="butt" d="m480.0 0l0.1574707 960.0" fill-rule="evenodd"/><path fill="#000000" fill-opacity="0.0" d="m977.9344 480.28085l-977.8583 -0.18899536" fill-rule="evenodd"/><path stroke="#dfdfdf" stroke-width="24.0" stroke-linejoin="round" stroke-linecap="butt" d="m977.9344 480.28085l-977.8583 -0.18899536" fill-rule="evenodd"/><path fill="#434343" d="m721.39825 174.72476l8.803528 24.20964l29.863464 81.12529l-78.613525 0l29.863525 -81.12529l8.803467 -24.20964zm-15.764343 -32.70604l-85.526855 225.15471l29.276733 0l22.797974 -61.93161l97.15344 0l22.798035 61.93161l29.225525 0l-85.526855 -225.15471z" fill-rule="evenodd"/><path fill="#434343" d="m243.57819 609.29956l-61.31726 44.017517l13.87059 20.422058l37.721893 -27.024658l0 187.7398l26.717545 0l0 -225.15472z" fill-rule="evenodd"/><path fill="#000000" fill-opacity="0.0" d="m972.0544 947.206l-480.00003 0.15753174" fill-rule="evenodd"/><path stroke="#f2f2f2" stroke-width="24.0" stroke-linejoin="round" stroke-linecap="butt" d="m972.0544 947.206l-480.00003 0.15753174" fill-rule="evenodd"/><path fill="#000000" fill-opacity="0.0" d="m947.65576 971.57166l-0.1574707 -480.0" fill-rule="evenodd"/><path stroke="#f2f2f2" stroke-width="24.0" stroke-linejoin="round" stroke-linecap="butt" d="m947.65576 971.57166l-0.1574707 -480.0" fill-rule="evenodd"/><path fill="#dfdfdf" d="m-33.333332 403.26773l513.4803 0l0 76.81888l-513.4803 0z" fill-rule="evenodd"/><path fill="#dfdfdf" d="m480.15747 -55.55643l0 535.5591l-76.81888 0l0 -535.5591z" fill-rule="evenodd"/><path fill="#dfdfdf" d="m1047.6771 -65.3832l0 97.51181l-100.62988 0l0 -97.51181z" fill-rule="evenodd"/><path fill="#dfdfdf" d="m12.6587925 936.6168l0 97.51184l-100.62992 0l0 -97.51184z" fill-rule="evenodd"/></g></svg>